<svg width="8" height="25" viewBox="0 0 8 25" fill="none" xmlns="http://www.w3.org/2000/svg">
<path d="M3.43496 24.4631C3.74733 25.179 4.25462 25.179 4.56699 24.4631L7.76565 17.1326C7.99556 16.6058 8.06303 15.8212 7.93808 15.1339C7.81313 14.4467 7.52325 14 7.19839 14L0.801058 14C0.478692 14 0.186314 14.4467 0.0613661 15.1339C-0.0635815 15.8212 0.00638866 16.6058 0.233794 17.1326L3.43246 24.4631H3.43496Z" fill="#DCDCDC"/>
<path d="M4.56504 0.5369C4.25267 -0.178967 3.74538 -0.178967 3.43301 0.5369L0.234347 7.86737C0.00444263 8.39425 -0.0630293 9.17884 0.0619186 9.86607C0.186866 10.5533 0.476746 11 0.80161 11L7.19894 11C7.52131 11 7.81369 10.5533 7.93863 9.86607C8.06358 9.17884 7.99361 8.39425 7.76621 7.86737L4.56754 0.5369H4.56504Z" fill="#DCDCDC"/>
</svg>
